<?xml version="1.0" encoding="iso-8859-1"?>
<!-- Generator: Adobe Illustrator 18.0.0, SVG Export Plug-In . SVG Version: 6.00 Build 0)  -->
<!DOCTYPE svg PUBLIC "-//W3C//DTD SVG 1.1//EN" "http://www.w3.org/Graphics/SVG/1.1/DTD/svg11.dtd">
<svg version="1.1" id="Capa_1" xmlns="http://www.w3.org/2000/svg" xmlns:xlink="http://www.w3.org/1999/xlink" x="0px" y="0px"
	 viewBox="0 0 179.462 179.462" style="enable-background:new 0 0 179.462 179.462;" xml:space="preserve" fill='orange'>
<g>
	<path d="M112.135,107.651c0.768-0.928,1.477-1.915,2.131-2.955c0.9,1.265,3,1.946,4.471,2.321
		c4.266,1.092,8.633-0.826,10.355,4.543c0.251,0.781,1.536,0.682,1.483-0.201c-0.434-7.196-6.343-12.846-13.468-12.961
		c0.481-1.648,0.802-3.341,0.958-5.052c0.894,0.577,2.247,0.58,3.485,0.595c5.015,0.061,8.697-4.945,13.065-0.189
		c0.602,0.654,1.57-0.178,1.186-0.914c-3.42-6.542-11.281-9.112-17.91-6.127c-0.183-1.309-0.454-2.605-0.807-3.879
		c1.081,0.451,2.518-0.038,3.726-0.559c4.431-1.91,6.758-7.639,12.179-4.946c0.73,0.362,1.594-0.592,0.915-1.186
		c-5.658-4.943-13.959-4.535-19.124,0.828c-0.875-1.671-1.911-3.249-3.094-4.698c1.61,0.15,3.222-1.514,4.187-2.847
		c2.691-3.72,2.669-8.892,8.438-8.589c0.879,0.045,0.989-1.236,0.201-1.483c-7.009-2.195-14.362,1.491-16.971,8.226
		c-0.823-0.749-1.695-1.424-2.604-2.033c1.412-0.799,2.153-3.056,2.551-4.613c1.092-4.264-0.828-8.633,4.54-10.354
		c0.782-0.251,0.682-1.536-0.201-1.482c-7.218,0.436-12.883,6.377-12.964,13.531c-1.654-0.531-3.365-0.9-5.106-1.106
		c0.67-0.889,0.682-2.307,0.698-3.607c0.062-5.017-4.948-8.696-0.189-13.066c0.655-0.601-0.178-1.57-0.915-1.185
		c-6.512,3.405-9.093,11.21-6.172,17.819c-1.44,0.146-2.873,0.39-4.284,0.733c0.343-1.06-0.126-2.418-0.621-3.566
		c-1.91-4.43-7.637-6.758-4.947-12.177c0.362-0.73-0.592-1.595-1.186-0.915c-4.86,5.565-4.556,13.696,0.562,18.876
		c-1.569,0.757-3.068,1.644-4.468,2.66c-0.276-1.371-1.668-2.676-2.811-3.503c-3.719-2.691-8.891-2.67-8.589-8.438
		c0.046-0.879-1.236-0.99-1.483-0.201c-2.16,6.898,1.381,14.117,7.912,16.834c-0.764,0.94-1.458,1.927-2.082,2.953
		c-0.911-1.247-2.993-1.921-4.454-2.295c-4.266-1.091-8.633,0.826-10.354-4.542c-0.251-0.782-1.536-0.682-1.483,0.2
		c0.434,7.193,6.336,12.841,13.456,12.963c-0.503,1.621-0.868,3.284-1.092,4.968c-0.891-0.492-2.166-0.499-3.339-0.513
		c-5.015-0.061-8.698,4.947-13.065,0.189c-0.602-0.654-1.57,0.178-1.186,0.914c3.34,6.39,10.916,8.983,17.443,6.32
		c0.121,1.333,0.332,2.655,0.624,3.957c-1.084-0.473-2.538,0.021-3.757,0.547c-4.43,1.908-6.756,7.637-12.177,4.945
		c-0.73-0.363-1.595,0.592-0.915,1.186c5.586,4.877,13.752,4.552,18.929-0.619c0.794,1.679,1.754,3.277,2.88,4.763
		c-1.411,0.221-2.764,1.652-3.614,2.827c-2.691,3.721-2.669,8.891-8.438,8.59c-0.879-0.047-0.989,1.234-0.201,1.482
		c6.984,2.188,14.311-1.467,16.944-8.156c0.041,0.032,0.079,0.066,0.12,0.098c1.085,0.826,2.219,1.551,3.385,2.195
		c-1.046,1.007-1.636,2.854-1.977,4.186c-1.092,4.266,0.826,8.635-4.541,10.355c-0.782,0.252-0.682,1.535,0.201,1.482
		c7.168-0.434,12.799-6.297,12.957-13.384c1.646,0.424,3.322,0.696,5.008,0.831c-0.482,0.891-0.49,2.154-0.504,3.32
		c-0.062,5.016,4.948,8.697,0.189,13.065c-0.655,0.601,0.178,1.572,0.914,1.185c6.5-3.397,9.085-11.179,6.191-17.781
		c1.077-0.154,2.146-0.363,3.2-0.63c-0.26,1.038,0.187,2.326,0.66,3.425c1.909,4.43,7.638,6.758,4.947,12.178
		c-0.362,0.73,0.592,1.594,1.186,0.914c4.853-5.557,4.559-13.671-0.536-18.853c1.549-0.778,3.035-1.688,4.433-2.731
		c0.252,1.389,1.664,2.715,2.821,3.553c3.719,2.693,8.89,2.668,8.589,8.438c-0.046,0.879,1.236,0.99,1.483,0.201
		C122.275,117.593,118.704,110.346,112.135,107.651z M128.131,107.086c-0.904-0.727-2.041-1.206-3.506-1.406
		c-1.794-0.246-3.609-0.115-5.399-0.439c-0.995-0.18-3.222-0.683-4.31-1.626c0.685-1.213,1.259-2.474,1.723-3.771
		C121.52,100.365,126.202,102.772,128.131,107.086z M131.796,89.959c-0.926-0.229-1.947-0.236-3.13,0.008
		c-2.143,0.441-7.904,3.734-10.523,2.205c0.065-1.33,0.034-2.666-0.085-3.996C122.827,86.537,128.182,86.764,131.796,89.959z
		 M129.063,74.828c-0.922,0.111-1.853,0.457-2.83,1.085c-2.21,1.418-6.266,6.737-9.495,5.763c-0.373-1.163-0.81-2.304-1.32-3.408
		C119.276,74.91,124.468,73.115,129.063,74.828z M119.638,60.146c-0.871,0.522-1.634,1.289-2.305,2.377
		c-0.933,1.514-1.468,3.277-2.301,4.85c-0.594,1.123-2.448,3.903-4.051,4.069c-0.1-0.112-0.203-0.222-0.305-0.332
		c-0.632-0.884-1.315-1.703-2.041-2.462C110.845,64.096,114.807,60.442,119.638,60.146z M107.551,51.539
		c-0.726,0.904-1.204,2.04-1.405,3.504c-0.246,1.794-0.115,3.609-0.438,5.399c-0.188,1.044-0.732,3.445-1.765,4.464
		c-1.161-0.695-2.382-1.278-3.64-1.768C100.799,58.219,103.205,53.483,107.551,51.539z M90.47,47.665
		c-0.23,0.926-0.237,1.947,0.006,3.132c0.446,2.166,3.814,8.037,2.156,10.613c-1.313-0.103-2.636-0.114-3.96-0.044
		C87.047,56.605,87.282,51.269,90.47,47.665z M74.827,50.395c0.111,0.922,0.457,1.854,1.084,2.831
		c1.389,2.164,6.519,6.093,5.824,9.288c-1.249,0.354-2.473,0.793-3.666,1.299C74.836,59.98,73.146,54.901,74.827,50.395z
		 M60.143,59.822c0.523,0.87,1.29,1.634,2.378,2.305c1.513,0.934,3.278,1.469,4.85,2.302c0.976,0.517,3.207,1.985,3.881,3.415
		c-1.072,0.854-2.077,1.785-3.001,2.795C63.88,68.393,60.43,64.515,60.143,59.822z M51.332,72.376
		c0.904,0.727,2.04,1.205,3.505,1.406c1.794,0.246,3.609,0.116,5.399,0.438c0.995,0.179,3.219,0.684,4.308,1.625
		c-0.663,1.216-1.232,2.478-1.709,3.773C57.95,79.101,53.263,76.693,51.332,72.376z M47.665,89.502
		c0.926,0.23,1.948,0.237,3.131-0.006c2.086-0.43,7.616-3.575,10.32-2.321c-0.135,1.413-0.172,2.835-0.112,4.252
		C56.336,92.918,51.177,92.609,47.665,89.502z M49.72,104.891c0.922-0.111,1.853-0.457,2.83-1.084
		c2.203-1.413,6.236-6.702,9.46-5.776c0.323,1.212,0.721,2.401,1.195,3.559C59.364,104.859,54.252,106.58,49.72,104.891z
		 M59.307,119.829c0.871-0.523,1.636-1.29,2.307-2.378c0.933-1.514,1.468-3.279,2.301-4.852c0.531-1.003,2.064-3.319,3.529-3.926
		c0.844,1.011,1.771,1.961,2.779,2.841C67.995,115.98,64.072,119.537,59.307,119.829z M67.958,74.971
		c4.3-6.823,11.842-9.902,19.534-10.92c8.479-1.123,15.465,2.242,21.817,7.45c6.167,7.779,7.97,18.91,4.721,28.288
		c-5.411,15.613-26.22,20.26-39.366,12.277C61.808,104.26,60.446,86.889,67.958,74.971z M72.843,128.338
		c0.726-0.904,1.205-2.041,1.405-3.506c0.246-1.793,0.116-3.607,0.438-5.398c0.166-0.919,0.609-2.887,1.417-4.041
		c1.288,0.632,2.613,1.163,3.965,1.588C79.519,121.813,77.117,126.426,72.843,128.338z M90.012,131.798
		c0.23-0.927,0.238-1.948-0.006-3.132c-0.433-2.1-3.607-7.675-2.297-10.364c1.38,0.057,2.763,0.023,4.137-0.107
		C93.433,122.932,93.178,128.219,90.012,131.798z M104.629,129.066c-0.111-0.922-0.457-1.854-1.084-2.832
		c-1.372-2.137-6.391-6.001-5.838-9.175c1.267-0.374,2.508-0.833,3.719-1.368C104.634,119.519,106.304,124.578,104.629,129.066z
		 M116.937,117.336c-1.513-0.934-3.278-1.469-4.85-2.301c-0.989-0.523-3.264-2.026-3.904-3.474c1.042-0.849,2.032-1.771,2.955-2.771
		c4.402,2.24,7.889,6.134,8.177,10.851C118.791,118.77,118.024,118.007,116.937,117.336z"/>
	<path d="M52.147,61.695c1.889,0,1.889-2.93,0-2.93C50.258,58.766,50.258,61.695,52.147,61.695z"/>
	<path d="M66.773,50.754c1.777,0,1.777-2.755,0-2.755C64.996,47.999,64.996,50.754,66.773,50.754z"/>
	<path d="M84.147,44.813c2.04,0,2.04-3.164,0-3.164C82.106,41.649,82.106,44.813,84.147,44.813z"/>
	<path d="M102.147,46.532c1.118,0,2.051-0.933,2.051-2.051c0-1.118-0.933-2.051-2.051-2.051c-1.118,0-2.051,0.933-2.051,2.051
		C100.096,45.599,101.029,46.532,102.147,46.532z"/>
	<path d="M120.166,53.514c1.965,0,1.965-3.047,0-3.047C118.201,50.467,118.201,53.514,120.166,53.514z"/>
	<path d="M128.741,66.32c0.025,0.016,0.05,0.031,0.075,0.048c0.541,0.349,1.302,0.218,1.744-0.226
		c0.483-0.482,0.51-1.155,0.225-1.743c-0.014-0.028-0.027-0.056-0.04-0.083c-0.418-0.861-1.671-0.926-2.3-0.297
		C127.754,64.709,127.953,65.81,128.741,66.32z"/>
	<path d="M137.147,83.68c2.191,0,2.191-3.398,0-3.398C134.956,80.281,134.956,83.68,137.147,83.68z"/>
	<path d="M135.147,100.394c-2.368,0-2.368,3.672,0,3.672C137.515,104.066,137.515,100.394,135.147,100.394z"/>
	<path d="M128.647,117.801c-2.166,0-2.166,3.359,0,3.359C130.813,121.16,130.813,117.801,128.647,117.801z"/>
	<path d="M112.147,126.09c-2.116,0-2.116,3.281,0,3.281C114.263,129.371,114.263,126.09,112.147,126.09z"/>
	<path d="M96.523,133.875c-0.662,0.191-1.209,0.777-1.169,1.5c0.043,0.785,0.817,1.58,1.66,1.266
		c0.054-0.02,0.106-0.045,0.159-0.066c0.627-0.129,1.13-0.599,1.13-1.344C98.303,134.326,97.404,133.619,96.523,133.875z
		 M96.841,136.622c-0.005-0.007-0.036-0.014-0.113-0.021c0.06,0.003,0.118,0.006,0.177,0.003
		C96.884,136.61,96.863,136.616,96.841,136.622z"/>
	<path d="M78.471,132.281c-1.559,0-1.559,2.418,0,2.418C80.03,134.699,80.03,132.281,78.471,132.281z"/>
	<path d="M49.82,112.295c-1.101,0.301-1.333,1.461-0.642,2.281c0.36,0.427,1.005,0.346,1.396,0.027
		c0.006-0.003,0.013-0.003,0.019-0.005c-0.108,0.098-0.051,0.047,0.012-0.003c0.447-0.185,0.772-0.567,0.772-1.115
		C51.377,112.68,50.592,112.082,49.82,112.295z"/>
	<path d="M43.397,93.918c-2.015,0-2.015,3.125,0,3.125S45.412,93.918,43.397,93.918z"/>
	<path d="M45.147,80.059c1.713,0,1.713-2.656,0-2.656S43.434,80.059,45.147,80.059z"/>
	<path d="M62.897,126.383c-1.738,0-1.738,2.695,0,2.695C64.635,129.078,64.635,126.383,62.897,126.383z"/>
	<path d="M179.383,83.277c0.36-0.73-0.592-1.598-1.186-0.916c-3.838,4.416-7.689,5.621-13.178,3.732
		c-3.442-1.186-6.713-2.785-10.312-3.473c-2.907-0.555-7.903-1.005-10.15,1.35c-0.491-4.062-1.409-8.051-2.722-11.888
		c14.085,0.267,26.602-10.362,27.208-24.736c0.037-0.873-1.242-0.998-1.482-0.201c-3.134,10.402-11.185,7.842-19.673,9.361
		c-3.332,0.597-9.297,2.218-10.419,5.85c-1.572-2.765-3.377-5.386-5.398-7.825c13.153-4.854,21.078-19.131,16.496-32.765
		c-0.258-0.77-1.549-0.688-1.482,0.201c0.362,4.844-0.626,8.5-4.943,11.076c-3.15,1.879-6.744,2.99-9.971,4.744
		c-2.967,1.612-7.969,5.486-7.7,9.295c-3.217-2.553-6.767-4.724-10.626-6.422c10.387-9.739,11.826-26.303,2.008-36.984
		c-0.6-0.652-1.576,0.178-1.186,0.915c2.729,5.141,2.474,9.09-1.197,13.459c-2.201,2.62-4.656,4.987-6.618,7.806
		c-2.046,2.938-4.886,8.706-2.051,11.7c-3.738-0.984-7.547-1.638-11.359-1.94c6.42-12.792,1.917-29.082-11.163-35.537
		c-0.729-0.36-1.597,0.592-0.915,1.185c4.415,3.838,5.619,7.69,3.73,13.178c-1.185,3.442-2.784,6.713-3.472,10.312
		c-0.623,3.262-1.116,9.159,2.342,10.842c-4.378,0.345-8.678,1.193-12.795,2.569c0.337-14.14-10.317-26.733-24.734-27.342
		c-0.873-0.037-0.998,1.242-0.201,1.482c10.402,3.135,7.839,11.186,9.36,19.674c0.612,3.417,2.296,9.62,6.129,10.508
		c-2.488,1.488-4.854,3.224-7.072,5.213c-4.744-13.337-19.14-21.418-32.88-16.801c-0.77,0.258-0.689,1.549,0.201,1.482
		c4.843-0.362,8.5,0.626,11.076,4.943c1.879,3.15,2.99,6.744,4.744,9.971c1.739,3.2,6.106,8.77,10.187,7.539
		c-2.775,3.4-5.09,7.168-6.957,11.183c-9.685-10.74-26.525-12.346-37.338-2.406c-0.653,0.6,0.178,1.576,0.915,1.186
		c5.141-2.728,9.091-2.473,13.459,1.198c2.62,2.201,4.987,4.656,7.806,6.617c3.066,2.134,9.202,5.116,12.063,1.634
		c-1.044,3.52-1.784,7.146-2.222,10.818C22.899,78.582,6.548,83.073,0.079,96.184c-0.36,0.73,0.592,1.598,1.186,0.914
		c3.838-4.414,7.69-5.617,13.178-3.729c3.442,1.184,6.713,2.783,10.312,3.471c3.139,0.6,8.713,1.075,10.63-1.969
		c0.268,4.333,1.075,8.52,2.377,12.508c-14.141-0.336-26.736,10.315-27.345,24.734c-0.037,0.873,1.242,0.998,1.482,0.201
		c3.135-10.4,11.186-7.84,19.674-9.359c3.379-0.605,9.477-2.26,10.473-6.002c1.61,2.778,3.486,5.414,5.61,7.882
		c-13.308,4.762-21.365,19.139-16.754,32.86c0.258,0.772,1.549,0.689,1.482-0.199c-0.362-4.844,0.627-8.5,4.944-11.076
		c3.15-1.879,6.744-2.99,9.971-4.744c3.104-1.686,8.429-5.847,7.623-9.818c1.533,1.235,3.139,2.409,4.823,3.508
		c1.92,1.254,3.902,2.379,5.929,3.39c-10.43,9.732-11.89,26.33-2.058,37.026c0.6,0.654,1.576-0.178,1.186-0.914
		c-2.728-5.141-2.472-9.09,1.198-13.457c2.202-2.621,4.656-4.988,6.619-7.807c1.919-2.758,4.535-8.003,2.509-11.113
		c2.837,0.845,5.725,1.475,8.637,1.876c-6.042,12.71-1.485,28.649,11.419,35.017c0.729,0.359,1.597-0.592,0.914-1.186
		c-4.415-3.838-5.619-7.689-3.73-13.178c1.185-3.441,2.784-6.713,3.472-10.313c0.536-2.804,0.972-7.553-1.11-9.901
		c3.855-0.22,7.689-0.838,11.443-1.863c-0.239,13.889,10.459,25.529,24.331,26.458c0.232,0.017,0.462,0.039,0.696,0.049
		c0.873,0.037,0.998-1.242,0.201-1.482c-8.113-2.444-8.348-7.897-8.777-14.212c-0.017-0.252-0.035-0.506-0.053-0.762
		c-0.11-1.531-0.249-3.107-0.53-4.698c-0.502-2.844-1.832-7.889-4.592-9.836c0.697-0.372,1.389-0.755,2.074-1.16
		c2.252-1.332,4.362-2.823,6.332-4.447c4.777,13.282,19.137,21.318,32.845,16.713c0.77-0.26,0.688-1.549-0.201-1.482
		c-4.843,0.361-8.5-0.627-11.075-4.945c-1.879-3.148-2.99-6.742-4.744-9.971c-1.649-3.033-5.663-8.207-9.554-7.684
		c2.767-3.449,5.067-7.239,6.886-11.261c9.722,10.497,26.373,11.989,37.096,2.134c0.653-0.6-0.178-1.576-0.915-1.186
		c-5.141,2.729-9.09,2.473-13.458-1.197c-2.62-2.203-4.987-4.658-7.806-6.619c-2.976-2.071-8.847-4.947-11.807-1.931
		c0.895-3.422,1.471-6.942,1.717-10.511C157.47,100.621,173.094,96.021,179.383,83.277z M154.218,84.396
		c3.572,0.525,6.941,2.27,10.305,3.498c4.195,1.531,7.695,1.136,10.788-0.85c-7.07,8.989-19.674,10.436-30.385,6.349
		c0.071-1.662,0.076-3.333,0.002-5.007c-0.05-1.146-0.141-2.287-0.259-3.424C146.838,83.183,152.09,84.084,154.218,84.396z
		 M149.331,58.168c3.009-0.385,6.069-0.178,9.073-0.609c3.972-0.572,6.629-2.258,8.438-4.989
		c-2.844,11.182-13.969,17.587-25.505,18.109c-0.954-2.569-2.089-5.062-3.394-7.454C139.27,59.921,146.712,58.503,149.331,58.168z
		 M133.102,39.383c2.871-1.726,6.118-2.76,9.094-4.28c3.548-1.812,5.44-4.442,6.157-7.687c1.302,11.412-6.662,21.372-17.247,25.992
		c-1.803-2.055-3.761-3.973-5.875-5.718C125.351,44.404,131.017,40.636,133.102,39.383z M108.444,26.788
		c1.905-3.082,4.82-5.514,7.078-8.327c2.519-3.138,3.139-6.302,2.452-9.556c5.991,10.046,2.491,22.636-5.513,31.178
		c-0.264-0.106-0.523-0.219-0.79-0.321c-1.971-0.754-3.977-1.412-6.005-1.976C103.133,35.252,107.095,28.968,108.444,26.788z
		 M83.396,25.244c0.526-3.572,2.27-6.941,3.498-10.305c1.531-4.194,1.136-7.695-0.848-10.787
		c9.264,7.288,10.514,20.453,5.953,31.366c-2.363-0.133-4.723-0.128-7.064,0.017C81.902,34.247,83.037,27.686,83.396,25.244z
		 M57.254,30.537c-0.385-3.009-0.177-6.069-0.609-9.072c-0.572-3.973-2.257-6.629-4.989-8.438
		c11.219,2.854,17.628,14.044,18.112,25.621c-2.495,0.917-4.913,2.041-7.235,3.367C59.069,40.943,57.597,33.213,57.254,30.537z
		 M39.387,46.366c-1.726-2.871-2.76-6.118-4.28-9.094c-1.812-3.549-4.442-5.44-7.687-6.157C38.954,29.798,49,37.949,53.555,48.703
		c-1.191,1.141-2.329,2.367-3.42,3.664c-0.531,0.567-1.035,1.158-1.538,1.751C45.132,55.208,40.756,48.645,39.387,46.366z
		 M37.822,73.776c-2.515,2.59-8.84-1.401-11.029-2.755c-3.081-1.904-5.513-4.82-8.327-7.078c-3.138-2.52-6.302-3.139-9.556-2.452
		c10.183-6.071,22.979-2.394,31.524,5.841c-0.908,2.089-1.696,4.236-2.366,6.431C37.994,73.714,37.894,73.702,37.822,73.776z
		 M25.244,95.064c-3.572-0.525-6.941-2.27-10.305-3.496c-4.195-1.531-7.696-1.136-10.789,0.849
		c7.292-9.271,20.468-10.517,31.385-5.948c-0.244,2.512-0.311,4.988-0.207,7.42C33.677,96.454,27.581,95.409,25.244,95.064z
		 M30.131,121.295c-3.009,0.385-6.069,0.176-9.073,0.607c-3.973,0.572-6.63,2.258-8.438,4.991
		c2.854-11.221,14.046-17.63,25.624-18.114c0.912,2.533,2.022,4.983,3.325,7.334C40.381,119.506,32.782,120.954,30.131,121.295z
		 M46.37,140.082c-2.871,1.727-6.118,2.76-9.095,4.279c-3.549,1.812-5.44,4.441-6.157,7.688
		c-1.313-11.508,6.798-21.536,17.515-26.105c1.718,1.89,3.589,3.671,5.594,5.341C54.711,134.676,48.559,138.767,46.37,140.082z
		 M71.029,152.674c-1.905,3.08-4.821,5.514-7.079,8.326c-2.52,3.139-3.139,6.304-2.452,9.558
		c-5.988-10.039-2.497-22.62,5.495-31.161c2.356,1.104,4.771,2.046,7.227,2.821C75.831,145.012,72.289,150.635,71.029,152.674z
		 M94.066,154.219c-0.526,3.572-2.27,6.941-3.497,10.305c-1.531,4.194-1.136,7.695,0.849,10.787
		c-9.095-7.155-10.468-19.975-6.2-30.766c2.796,0.313,5.608,0.418,8.415,0.313C95.224,147.127,94.371,152.147,94.066,154.219z
		 M116.362,139.023c2.19,2.013,3.286,6.895,3.754,8.928c0.297,1.291,0.438,2.613,0.518,3.948c0.132,2.224,0.094,4.479,0.324,6.665
		c0.428,4.073,2.203,6.826,5.029,8.684c-10.961-2.784-17.33-13.525-18.073-24.813C110.794,141.543,113.62,140.409,116.362,139.023z
		 M107.647,140.055c-0.32-0.296-0.937-0.169-1.067,0.341c-4.53,1.389-9.264,2.191-14.068,2.321
		c-23.935,0.646-47.606-15.74-53.372-39.15c-4.127-16.754,0.341-36.185,11.437-49.723c9.524-9.119,20.592-15.03,33.93-15.943
		c11.25-0.77,23.497,2.046,33.338,7.516c16.718,9.291,25.232,28.994,24.807,47.76c-0.079,0.158-0.087,0.335-0.009,0.497
		c-0.108,3.466-0.52,6.896-1.244,10.219C137.579,121.417,124.062,134.645,107.647,140.055z M141.086,134.098
		c1.726,2.871,2.76,6.119,4.28,9.096c1.812,3.549,4.442,5.439,7.687,6.157c-11.482,1.31-21.492-6.762-26.075-17.445
		c2.006-1.754,3.848-3.657,5.533-5.679C135.856,126.03,139.799,131.957,141.086,134.098z M142.97,106.189
		c2.515-2.588,8.84,1.402,11.029,2.756c3.081,1.904,5.514,4.82,8.327,7.078c3.138,2.52,6.303,3.139,9.556,2.451
		c-10.086,6.015-22.734,2.464-31.277-5.605c0.908-2.162,1.68-4.386,2.31-6.656C142.933,106.204,142.954,106.206,142.97,106.189z"/>
</g>
<g>
</g>
<g>
</g>
<g>
</g>
<g>
</g>
<g>
</g>
<g>
</g>
<g>
</g>
<g>
</g>
<g>
</g>
<g>
</g>
<g>
</g>
<g>
</g>
<g>
</g>
<g>
</g>
<g>
</g>
</svg>
